<svg id="Capa_1" enable-background="new 0 0 512 512" height="512" viewBox="0 0 512 512" width="512" xmlns="http://www.w3.org/2000/svg"><g><path d="m497 180.75h-45.25v-165.75c0-8.284-6.716-15-15-15h-421.75c-8.284 0-15 6.716-15 15v451.875c0 24.882 20.243 45.125 45.125 45.125h421.75c24.882 0 45.125-20.243 45.125-45.125v-271.125c0-8.284-6.716-15-15-15zm-467 286.125v-436.875h391.75v436.875c0 5.304.927 10.394 2.616 15.125h-379.241c-8.34 0-15.125-6.785-15.125-15.125zm452 0c0 8.34-6.785 15.125-15.125 15.125s-15.125-6.785-15.125-15.125v-256.125h30.25z"/><path d="m376.5 60.25h-301.25c-8.284 0-15 6.716-15 15v120.5c0 8.284 6.716 15 15 15h301.25c8.284 0 15-6.716 15-15v-120.5c0-8.284-6.716-15-15-15zm-15 120.5h-271.25v-90.5h271.25z"/><path d="m376.5 241h-120.5c-8.284 0-15 6.716-15 15v120.5c0 8.284 6.716 15 15 15h120.5c8.284 0 15-6.716 15-15v-120.5c0-8.284-6.716-15-15-15zm-15 120.5h-90.5v-90.5h90.5z"/><path d="m75.25 271h120.5c8.284 0 15-6.716 15-15s-6.716-15-15-15h-120.5c-8.284 0-15 6.716-15 15s6.716 15 15 15z"/><path d="m75.25 331.25h120.5c8.284 0 15-6.716 15-15s-6.716-15-15-15h-120.5c-8.284 0-15 6.716-15 15s6.716 15 15 15z"/><path d="m75.25 391.5h120.5c8.284 0 15-6.716 15-15s-6.716-15-15-15h-120.5c-8.284 0-15 6.716-15 15s6.716 15 15 15z"/><path d="m375.894 421.75h-300.644c-8.284 0-15 6.716-15 15s6.716 15 15 15h300.644c8.284 0 15-6.716 15-15s-6.716-15-15-15z"/></g></svg>